<svg width="14" height="16" viewBox="0 0 14 16" fill="none" xmlns="http://www.w3.org/2000/svg">
    <path d="M2.125 16C1.67812 16 1.29557 15.8508 0.977344 15.5524C0.659115 15.254 0.5 14.8952 0.5 14.4762V6.85714C0.5 6.4381 0.659115 6.07937 0.977344 5.78095C1.29557 5.48254 1.67812 5.33333 2.125 5.33333H2.9375V3.80952C2.9375 2.75556 3.33359 1.85714 4.12578 1.11429C4.91797 0.371429 5.87604 0 7 0C8.12396 0 9.08203 0.371429 9.87422 1.11429C10.6664 1.85714 11.0625 2.75556 11.0625 3.80952V5.33333H11.875C12.3219 5.33333 12.7044 5.48254 13.0227 5.78095C13.3409 6.07937 13.5 6.4381 13.5 6.85714V14.4762C13.5 14.8952 13.3409 15.254 13.0227 15.5524C12.7044 15.8508 12.3219 16 11.875 16H2.125ZM7 12.1905C7.44687 12.1905 7.82943 12.0413 8.14766 11.7429C8.46589 11.4444 8.625 11.0857 8.625 10.6667C8.625 10.2476 8.46589 9.88889 8.14766 9.59048C7.82943 9.29206 7.44687 9.14286 7 9.14286C6.55312 9.14286 6.17057 9.29206 5.85234 9.59048C5.53411 9.88889 5.375 10.2476 5.375 10.6667C5.375 11.0857 5.53411 11.4444 5.85234 11.7429C6.17057 12.0413 6.55312 12.1905 7 12.1905ZM4.5625 5.33333H9.4375V3.80952C9.4375 3.1746 9.20052 2.63492 8.72656 2.19048C8.2526 1.74603 7.67708 1.52381 7 1.52381C6.32292 1.52381 5.7474 1.74603 5.27344 2.19048C4.79948 2.63492 4.5625 3.1746 4.5625 3.80952V5.33333Z" fill="#B4BDDB"/>
</svg>