<?xml version="1.0" encoding="UTF-8"?>
<svg id="Layer_1" xmlns="http://www.w3.org/2000/svg" version="1.1" viewBox="0 0 24 24">
  <!-- Generator: Adobe Illustrator 30.2.1, SVG Export Plug-In . SVG Version: 2.1.1 Build 1)  -->
  <defs>
    <style>
      .st0 {
        fill: #fff;
      }
    </style>
  </defs>
  <path class="st0" d="M12,18c1.7,0,3.1-.6,4.3-1.8s1.8-2.6,1.8-4.3-.6-3.1-1.8-4.3-2.6-1.8-4.3-1.8v6l-4.3,4.3c.6.6,1.2,1,2,1.3.7.3,1.5.5,2.3.5ZM12,22c-1.4,0-2.7-.3-3.9-.8s-2.3-1.2-3.2-2.1-1.6-2-2.1-3.2-.8-2.5-.8-3.9.3-2.7.8-3.9,1.2-2.3,2.1-3.2,2-1.6,3.2-2.1,2.5-.8,3.9-.8,2.7.3,3.9.8,2.3,1.2,3.2,2.1,1.6,2,2.1,3.2.8,2.5.8,3.9-.3,2.7-.8,3.9-1.2,2.3-2.1,3.2-2,1.6-3.2,2.1-2.5.8-3.9.8ZM12,20c2.2,0,4.1-.8,5.7-2.3s2.3-3.4,2.3-5.7-.8-4.1-2.3-5.7-3.4-2.3-5.7-2.3-4.1.8-5.7,2.3-2.3,3.4-2.3,5.7.8,4.1,2.3,5.7,3.4,2.3,5.7,2.3Z"/>
</svg>