<svg width="20" height="20" fill="none" xmlns="http://www.w3.org/2000/svg"><path d="M19.904 17.02 10.618 2.327A.721.721 0 0 0 10 2a.718.718 0 0 0-.618.327L.097 17.02c-.275.437.069.98.618.98h18.57c.55 0 .893-.543.619-.98ZM9.286 8.04c0-.089.08-.162.178-.162h1.072c.098 0 .178.073.178.163v3.755c0 .09-.08.163-.178.163H9.464c-.098 0-.178-.073-.178-.163V8.04ZM10 15.226a1.121 1.121 0 0 1-.744-.294.938.938 0 0 1-.306-.686c0-.256.11-.503.306-.686.197-.183.464-.288.744-.294.28.005.547.111.744.294.196.183.306.43.306.686 0 .256-.11.503-.306.686a1.121 1.121 0 0 1-.744.294Z" fill="#D4AA49"/></svg>